<svg width="96" height="75" viewBox="0 0 96 75" fill="none" xmlns="http://www.w3.org/2000/svg">
<path opacity="0.3" d="M90.6748 7.3164C76.5404 9.0177 65.584 21.0385 65.584 35.6103C65.584 37.5121 67.0983 39.0264 69 39.0264H94.376V73.5322H59.8711V35.6103C59.8711 17.9081 73.4015 3.30176 90.6748 1.58495V7.3164ZM32.2334 7.31835C25.7948 8.10664 19.8084 11.0693 15.2725 15.7256L14.8076 16.2139C10.0627 21.3206 7.35771 27.9822 7.18945 34.9355L7.18164 35.6094V35.6103C7.18164 37.5121 8.69594 39.0264 10.5977 39.0264H35.9736V73.5322H1.46777V35.6103L1.47852 34.7588C1.90419 17.4419 15.2753 3.27653 32.2334 1.58593V7.31835Z" stroke="#F59F00" stroke-width="2.93619"/>
</svg>
